<?xml version="1.0" encoding="utf-8"?>
<!-- Generator: Adobe Illustrator 21.0.2, SVG Export Plug-In . SVG Version: 6.00 Build 0)  -->
<svg version="1.1" id="Layer_1" xmlns="http://www.w3.org/2000/svg" xmlns:xlink="http://www.w3.org/1999/xlink" x="0px" y="0px"
	 viewBox="0 0 170.5 226.8" enable-background="new 0 0 170.5 226.8" xml:space="preserve">
<path id="BTC_alt_1_" d="M155,112.9c-7.3-5.5-17.7-7.7-17.7-7.7s8.8-5.1,12.4-10.2c3.6-5.1,5.4-13,5.7-17.1
	c0.3-4.1,1-21.3-12.4-31.2C132.6,39,120.7,36,104.8,35V0.3H83.4v34.3c-4.8,0-10.4,0-16.3,0V0.3H45.7v34.3c-21.8,0-42.1,0-42.1,0
	v22.2c0,0,9,0,12.4,0c3.4,0,9.4,0.4,11.9,3.2c2.5,2.8,3,4.3,3,9.9c0,5.5,0,86.4,0,88.5c0,2.1-0.4,4.7-2.2,6.4
	c-1.8,1.7-3.6,2.1-7.9,2.1c-4.3,0-12.8,0-12.8,0l-4.4,25.7c0,0,20.9,0,42.1,0v34.2h21.4v-34.2c6.6,0,12.3,0,16.3,0v34.2h21.4v-34.8
	c5.5-0.3,10.7-0.7,13.7-1.1c6.1-0.8,19.9-2.4,32.8-11.4c12.9-9,15.8-23.1,16.1-37.3C167.7,128.1,162.3,118.4,155,112.9z M67.1,58.8
	c0,0,6.8-0.6,13.5-0.5c6.7,0.1,12.6,0.3,21.4,3c8.8,2.7,14,9.3,14.2,17.1c0.2,7.8-3.2,13-9.2,16.3c-6,3.3-14.3,5.1-22.1,5.4
	c-7.8,0.3-17.8,0-17.8,0S67.1,58.8,67.1,58.8z M115,161c-4.9,2.7-14.7,5.1-24.2,5.8c-9.5,0.7-23.7,0.4-23.7,0.4v-45.9
	c0,0,13.6-0.7,24.2,0c10.6,0.7,19.5,3.4,23.5,5.4c4,2,11,6.4,11,16.9C125.8,154.1,119.9,158.3,115,161z"/>
</svg>
