<?xml version="1.0" encoding="iso-8859-1"?>
<!-- Generator: Adobe Illustrator 21.0.2, SVG Export Plug-In . SVG Version: 6.00 Build 0)  -->
<svg version="1.1" id="Capa_1" xmlns="http://www.w3.org/2000/svg" xmlns:xlink="http://www.w3.org/1999/xlink" x="0px" y="0px"
	 viewBox="-13 212 437 370" enable-background="new -13 212 437 370" xml:space="preserve">
<path d="M347,335.4c32,0,58.4-26,58.4-58.4s-26-58-58.4-58s-58,26-58,58.4S315,335.4,347,335.4z M347,231.8
	c25.2,0,45.6,20.4,45.6,45.6s-20.4,45.2-45.6,45.2s-45.6-20.4-45.6-45.6S322.2,231.8,347,231.8z"/>
<path d="M333,305c0.8,0.4,2,0.8,2.8,0.8l0,0c0.8,0.4,2,0.4,3.2,0.8s2,0.4,3.2,0.4h0.8v6v2h2h5.6h2v-2v-6.4h0.4
	c1.2-0.4,2.4-0.8,3.6-1.6c1.2-0.4,2-1.2,3.2-2l0,0c0.8-0.8,1.6-1.6,2.4-2.8c0.8-0.8,1.2-2,2-3.2c0.4-1.2,0.8-2.4,1.2-3.6l0,0
	c0.4-1.2,0.4-2.4,0.4-4l0,0c0-1.2,0-2-0.4-3.2l0,0c-0.4-1.2-0.4-2-1.2-3.2c-0.4-0.8-0.8-2-1.6-2.8l0,0c-0.8-0.8-1.2-1.6-2-2.4
	s-1.6-1.6-2.8-2c-0.8-0.8-2-1.2-2.8-1.6c-1.2-0.4-2-1.2-3.2-1.6c-1.2-0.4-2.4-0.8-3.2-1.2l0,0c-0.4,0-1.2-0.4-1.6-0.8
	c-0.4-0.4-1.2-0.4-1.6-0.8l0,0c-0.4-0.4-1.2-0.4-1.6-0.8l0,0c-0.4-0.4-0.8-0.8-1.2-1.2l0,0c-0.4-0.4-0.8-0.8-0.8-1.6
	c-0.4-0.4-0.4-1.2-0.4-1.6c0-0.8,0-1.2,0-2c0-0.4,0.4-1.2,0.4-1.6l0,0c0.4-0.4,0.4-1.2,0.8-1.6s0.8-0.8,1.2-1.2
	c0.4-0.4,1.2-0.8,2-0.8l0,0c0.8-0.4,1.2-0.4,2-0.4l0,0c0.4,0,0.8,0,1.2,0l0,0c0.4,0,0.8,0,1.2,0l0,0c0.8,0,1.2,0,2,0.4
	c0.8,0,1.6,0.4,2,0.4l0,0c0.4,0,1.2,0.4,1.6,0.4l0,0c0.8,0,1.2,0.4,1.6,0.4l2,0.8l0.4-2.4l0.8-6.4V249l-1.6-0.4
	c-0.4,0-1.2-0.4-1.6-0.4l0,0c-0.4,0-0.8-0.4-1.6-0.4c-0.4,0-1.2-0.4-2-0.4s-1.2-0.4-2-0.4h-0.4v-5.6v-2h-2h-5.6h-2v2v6h-0.4
	c-1.2,0.4-2.4,0.8-3.6,1.6l0,0c-1.2,0.4-2,1.2-2.8,2l0,0c-0.8,0.8-1.6,1.6-2.4,2.8c-0.8,0.8-1.2,2-1.6,3.2c-0.4,1.2-0.8,2.4-1.2,3.6
	c-0.4,1.2-0.4,2.8-0.4,4l0,0c0,1.2,0,2,0.4,3.2s0.4,2,1.2,3.2l0,0c0.4,0.8,1.2,2,1.6,2.8l0,0c0.8,0.8,1.2,1.6,2,2.4l0,0
	c0.8,0.8,1.6,1.6,2.8,2c0.8,0.8,2,1.2,2.8,1.6c1.2,0.4,2.4,1.2,3.2,1.6l0,0c1.2,0.4,2.4,0.8,3.2,1.2l0,0c0.4,0,1.2,0.4,1.6,0.8
	s1.2,0.4,1.6,0.8c0.4,0.4,0.8,0.8,1.2,0.8c0.4,0.4,0.8,0.8,1.2,1.2c0.4,0.4,0.4,0.8,0.8,1.6l0,0c0,0.4,0.4,1.2,0.4,2l0,0
	c0,0.8,0,1.2,0,2c0,0.4-0.4,1.2-0.8,1.6l0,0c-0.4,0.4-0.8,0.8-1.2,1.2l0,0c-0.4,0.4-0.8,0.8-1.6,1.2l0,0c-0.4,0.4-1.2,0.4-1.6,0.8
	l0,0c-0.4,0-1.2,0.4-2,0.4l0,0c-0.4,0-0.8,0-1.6,0l0,0c-0.4,0-1.2,0-1.6,0c-0.8,0-1.6,0-2,0c-0.8,0-1.6-0.4-2-0.4
	c-0.8,0-1.6-0.4-2.4-0.8c-0.8-0.4-1.6-0.4-2.4-0.8c-0.4,0-0.8-0.4-1.2-0.4c-0.4,0-0.8-0.4-1.2-0.4l-2.4-1.2l-0.4,2.8l-0.8,7.2v1.2
	l1.2,0.4C331,304.2,331.8,304.6,333,305z"/>
<path d="M69.4,435c1.2,0,2.4-0.4,3.6-1.2l86.8-62l84,34.8c2,0.8,4.8,0.4,6.4-0.8l67.6-53.6c2.8-2,3.2-6.4,1.2-9.2
	c-2-2.8-6.4-3.2-9.2-1.2L245,393.4l-83.6-34.8c-2-0.8-4.4-0.4-6,0.8l-89.6,64c-2.8,2-3.6,6-1.6,8.8C65.4,434.2,67.4,435,69.4,435z"
	/>
<path d="M412.6,562.2H383V377c0-3.6-2.8-6.4-6.4-6.4h-58.8c-3.6,0-6.4,2.8-6.4,6.4v185.2h-21.6V441c0-3.6-2.8-6.4-6.4-6.4h-59.2
	c-3.6,0-6.4,2.8-6.4,6.4v121.2h-21.6V431.4c0-3.6-2.8-6.4-6.4-6.4H131c-3.6,0-6.4,2.8-6.4,6.4v130.8H103V469c0-3.6-2.8-6.4-6.4-6.4
	H37.4c-3.6,0-6.4,2.8-6.4,6.4v93.2H1c-3.6,0-6.4,2.8-6.4,6.4c0,3.6,2.8,6.4,6.4,6.4h36l0,0h58.8l0,0H131l0,0h58.8l0,0h34.4l0,0H283
	l0,0h34.4l0,0h58.8l0,0h36c3.6,0,6.4-2.8,6.4-6.4C419,565,416.2,562.2,412.6,562.2z M324.2,383.4h46v178.8h-46V383.4z M230.6,447.4
	h46v114.8h-46V447.4z M137.4,437.8h46v124.4h-46V437.8z M43.8,475.4h46v86.8h-46V475.4z"/>
</svg>
