<?xml version="1.0" encoding="iso-8859-1"?>
<!-- Generator: Adobe Illustrator 21.0.2, SVG Export Plug-In . SVG Version: 6.00 Build 0)  -->
<svg version="1.1" id="Capa_1" xmlns="http://www.w3.org/2000/svg" xmlns:xlink="http://www.w3.org/1999/xlink" x="0px" y="0px"
	 viewBox="-58 134 527 524" enable-background="new -58 134 527 524" xml:space="preserve">
<path d="M29.004,593.002c-2.63,0-5.21,1.069-7.07,2.93c-1.86,1.861-2.93,4.44-2.93,7.07s1.069,5.21,2.93,7.069
	c1.86,1.86,4.44,2.931,7.07,2.931s5.21-1.07,7.069-2.931c1.86-1.859,2.931-4.439,2.931-7.069s-1.07-5.21-2.931-7.07
	C34.214,594.07,31.634,593.002,29.004,593.002z"/>
<path d="M413.454,321.008c-2.63,0-5.21,1.069-7.07,2.93c-1.859,1.86-2.93,4.44-2.93,7.07s1.07,5.21,2.93,7.069
	c1.86,1.86,4.44,2.931,7.07,2.931c2.64,0,5.21-1.07,7.07-2.931c1.869-1.859,2.939-4.439,2.939-7.069s-1.07-5.21-2.939-7.07
	C418.664,322.077,416.094,321.008,413.454,321.008z"/>
<path d="M460.065,143.929c-1.876-1.875-4.42-2.929-7.073-2.929l-245.994,0.013c-5.522,0-9.999,4.478-9.999,10v28.597l-94.789,25.399
	c-5.335,1.43-8.501,6.913-7.071,12.247l49.127,183.342l-42.499,42.499c-5.409-7.898-14.491-13.092-24.764-13.092h-95.998
	c-16.542,0-29.999,13.458-29.999,29.999v162.996c0,16.542,13.458,29.999,29.999,29.999h95.998c14.053,0,25.875-9.716,29.115-22.78
	l11.89,10.369c9.179,8.004,20.939,12.412,33.118,12.412h301.867c5.522,0,10-4.478,10-10V151
	C462.993,148.348,461.94,145.804,460.065,143.929z M197,367.61l-18.239-67.535c7.618-3.934,13.854-9.82,18.239-16.846V367.61z
	 M197,200.314v37.055l-6.702,1.796c-2.563,0.687-4.746,2.362-6.072,4.659s-1.686,5.026-0.999,7.588
	c3.843,14.341-4.698,29.134-19.039,32.977c-2.565,0.688-4.752,2.366-6.077,4.668c-1.325,2.301-1.682,5.035-0.989,7.599
	l38.979,144.338h-20.069L165.69,400.53c-0.329-1.288-0.905-2.475-1.676-3.507l-46.968-175.285L197,200.314z M77.003,633h-95.998
	c-5.514,0-10-4.486-10-10V460.005c0-5.514,4.486-10,10-10h37.999V565.2c0,5.522,4.478,10,10,10s10-4.478,10-10V450.005h37.999
	c5.514,0,10,4.486,10,10v162.996C87.003,628.514,82.517,633,77.003,633z M151.126,633c-7.345,0-14.438-2.658-19.975-7.485
	l-24.149-21.061V466.147l43.658-43.658l7.918,30.98c1.132,4.427,5.119,7.523,9.688,7.523l196.604,0.012c7.72,0,14,6.28,14,14
	c0,7.72-6.28,14-14,14H264.13c-5.522,0-10,4.478-10,10c0,5.522,4.478,10,10,10h132.04c7.72,0,14,6.28,14,14c0,7.72-6.28,14-14,14
	H264.13c-5.522,0-10,4.478-10,10c0,5.522,4.478,10,10,10h110.643c7.72,0,14,6.28,14,14c0,7.72-6.28,14-14,14H264.13
	c-5.522,0-10,4.478-10,10c0,5.522,4.478,10,10,10h76.533c7.72,0,14,6.28,14,14c0,7.72-6.28,14-14,14L151.126,633L151.126,633z
	 M442.994,633h-71.359c1.939-4.273,3.028-9.01,3.028-14s-1.089-9.727-3.028-14h3.139c18.748,0,33.999-15.252,33.999-33.999
	c0-5.468-1.305-10.635-3.609-15.217c14.396-3.954,25.005-17.149,25.005-32.782c0-7.584-2.498-14.595-6.711-20.255V376.007
	c0-5.522-4.478-10-10-10c-5.522,0-10,4.478-10,10v113.792c-2.35-0.515-4.787-0.795-7.289-0.795h-0.328
	c1.939-4.273,3.028-9.01,3.028-14c0-18.747-15.252-33.999-33.999-33.999h-16.075c17.069-7.32,29.057-24.286,29.057-44.005
	c0-26.389-21.468-47.858-47.857-47.858S282.14,370.612,282.14,397c0,19.719,11.989,36.685,29.057,44.005h-54.663V250.863
	c17.864-3.893,31.96-17.988,35.852-35.853h75.221c3.892,17.865,17.988,31.96,35.852,35.853v31.09c0,5.522,4.478,10,10,10
	c5.522,0,10-4.478,10-10v-40.018c0-5.522-4.478-10-10-10c-14.847,0-26.924-12.079-26.924-26.925c0-5.522-4.478-10-10-10H283.46
	c-5.522,0-10,4.478-10,10c0,14.847-12.078,26.925-26.924,26.925c-5.522,0-10,4.478-10,10v199.069H217V161.011L442.995,161v472
	H442.994z M329.996,424.858c-15.361,0-27.857-12.497-27.857-27.857s12.497-27.858,27.857-27.858
	c15.361,0,27.857,12.498,27.857,27.858S345.358,424.858,329.996,424.858z"/>
</svg>
