<?xml version="1.0" encoding="iso-8859-1"?>
<!-- Generator: Adobe Illustrator 21.0.2, SVG Export Plug-In . SVG Version: 6.00 Build 0)  -->
<svg version="1.1" id="&#x421;&#x43B;&#x43E;&#x439;_1"
	 xmlns="http://www.w3.org/2000/svg" xmlns:xlink="http://www.w3.org/1999/xlink" x="0px" y="0px" viewBox="0 0 247.5 202.5"
	 enable-background="new 0 0 247.5 202.5" xml:space="preserve">
<g>
	<path d="M83.527,57.389l-2.73-10.227c-5.91,1.583-11.793,3.54-17.473,5.825l3.942,9.816C72.559,60.678,78.027,58.858,83.527,57.389
		L83.527,57.389z M83.527,57.389"/>
	<path d="M51.77,70.139l-5.09-9.277c-5.364,2.945-10.606,6.25-15.586,9.82l6.168,8.598C41.902,75.955,46.781,72.881,51.77,70.139
		L51.77,70.139z M51.77,70.139"/>
	<g>
		<defs>
			<rect id="SVGID_1_" x="4" y="3.5" width="239.76" height="194.88"/>
		</defs>
		<clipPath id="SVGID_2_">
			<use xlink:href="#SVGID_1_"  overflow="visible"/>
		</clipPath>
		<path clip-path="url(#SVGID_2_)" d="M4,95.565l8.043,6.871c3.703-4.332,7.711-8.481,11.91-12.336l-7.152-7.793
			C12.285,86.448,7.98,90.905,4,95.565L4,95.565z M4,95.565"/>
		<path clip-path="url(#SVGID_2_)" d="M232.371,91.303l-7.793,7.16c3.86,4.199,7.5,8.676,10.824,13.305L244,105.6
			C240.426,100.623,236.52,95.815,232.371,91.303L232.371,91.303z M232.371,91.303"/>
	</g>
	<path d="M198.543,76.229c4.746,3.148,9.355,6.625,13.691,10.328l6.871-8.047c-4.66-3.98-9.613-7.719-14.718-11.101L198.543,76.229z
		 M198.543,76.229"/>
	<path d="M188.43,58.174c-5.469-2.73-11.168-5.16-16.95-7.222l-3.55,9.968c5.379,1.918,10.683,4.176,15.769,6.719L188.43,58.174z
		 M188.43,58.174"/>
	<path d="M92.73,65.307l7.192,0.004l5.996-9.09l11.543,0.078l-7.27,25.059v0.594c0,3.16,2.575,5.738,5.739,5.738h10.425
		l16.547-30.684l12.786,0.422c6.621,0,12.003-5.191,12.003-11.57c0.004-3.137-1.273-6.074-3.597-8.27
		c-2.254-2.129-5.235-3.304-8.532-3.304h-0.007l-12.762,0.425L126.359,4.237l-10.441-0.004c-3.156,0.008-5.727,2.586-5.727,5.742
		v0.59l7.211,24.855l-11.593,0.102l-5.887-8.91h-7.188c-2.953,0-5.351,2.398-5.351,5.351v27.996
		C87.383,62.909,89.777,65.307,92.73,65.307L92.73,65.307z M95.703,35.334h0.004l5.652,8.555l27.102-0.234l-9.02-31.094h1.95
		l16.523,30.644l17.781-0.597c1.024,0,1.977,0.367,2.68,1.035c0.641,0.602,0.992,1.387,0.992,2.211c0,1.793-1.648,3.25-3.539,3.254
		l-17.805-0.59l-16.636,30.848h-1.946l9.079-31.313l-27.063-0.187l-5.754,8.714V35.334z M95.703,35.334"/>
	<path d="M141.043,106.123c-6.926-1.582-14.004-2.382-21.047-2.382c-44.289,0-82.105,30.207-91.957,73.453
		c-1.531,6.722-2.297,13.492-2.355,20.226h10.582c0.046-4.211,0.398-8.437,1.089-12.656c5.95,1.527,12.079,3.973,14.047,5.582
		c-0.09,0.68-0.195,1.371-0.304,2.07c-0.239,1.543-0.496,3.25-0.602,5.004h10.617c0.11-1.199,0.301-2.465,0.442-3.394
		c0.195-1.274,0.39-2.543,0.511-3.77c0.657-6.644-6.878-11.961-22.367-15.808c8.52-29.063,31.559-50.684,60.129-57.688
		c-1.574,3.047-2.844,6.813-3.375,11.578c-0.258,2.332-0.59,4.442-0.887,6.301c-1.183,7.488-2.41,15.231,7.715,19.738
		c5.68,2.535,9.653,2.953,12.844,3.289c1.551,0.161,2.918,0.305,4.371,0.676c0.516,1.723,0.254,5.922,0.152,7.602
		c-0.132,2.133-0.269,4.308,0.383,6.086c0.649,3.632,3.332,15.136,12.246,25.386h15.922c-15.304-9.992-17.746-27.078-17.844-27.828
		l-0.218-1.746c0.019-0.41,0.047-0.863,0.07-1.25c0.34-5.504,0.977-15.762-6.875-18.16c-2.711-0.828-5.043-1.07-7.098-1.289
		c-2.949-0.309-5.496-0.578-9.64-2.426c-2.715-1.211-2.715-1.211-1.574-8.422c0.312-1.976,0.668-4.215,0.949-6.797
		c0.808-7.285,3.879-11.902,6.652-14.925c2.106-0.157,4.231-0.25,6.375-0.25c6.25,0,12.543,0.707,18.699,2.109
		c21.832,4.977,40.426,18.152,52.344,37.105c8.078,12.844,12.426,27.301,12.848,42.083c-0.879,0.578-1.977,1.183-3.153,1.796h13.739
		c-0.098-17.379-4.993-34.429-14.477-49.511C186.57,126.565,165.633,111.725,141.043,106.123L141.043,106.123z M141.043,106.123"/>
</g>
</svg>
