<?xml version="1.0" encoding="utf-8"?>
<!-- Generator: Adobe Illustrator 21.0.2, SVG Export Plug-In . SVG Version: 6.00 Build 0)  -->
<svg version="1.1" id="Слой_1" xmlns="http://www.w3.org/2000/svg" xmlns:xlink="http://www.w3.org/1999/xlink" x="0px" y="0px"
	 viewBox="0 0 26 22.9" enable-background="new 0 0 26 22.9" xml:space="preserve">
<g>
	<path fill="#1D1D1B" d="M23.2,4.3h-2.4l-0.3-1.8c0,0,0,0,0,0c0-0.2-0.2-0.3-0.4-0.4c-0.1,0-0.1,0-0.2,0c0,0,0,0,0,0l0,0
		c0,0,0,0,0,0c0,0,0,0,0,0l-1.4,0.2l-0.4-1.2c0,0,0-0.1-0.1-0.1c0,0,0,0,0-0.1c0,0-0.1-0.1-0.1-0.1c0,0,0,0,0,0c0,0-0.1,0-0.1,0
		c0,0-0.1,0-0.1,0c0,0,0,0-0.1,0c0,0-0.1,0-0.1,0l0,0c0,0,0,0,0,0s0,0,0,0L7.5,3.9l-3,0.4H2.8C1.8,4.3,1,5.1,1,6.2v14.1
		c0,1,0.8,1.9,1.8,1.9h20.5c1,0,1.8-0.8,1.8-1.9V6.2C25,5.1,24.2,4.3,23.2,4.3z M19.6,3.1l0.2,1.2h-8.3L19.6,3.1z M17.4,1.8l0.2,0.6
		l-3.8,0.5L17.4,1.8z M23.5,20.3c0,0.2-0.1,0.4-0.3,0.4H2.8c-0.1,0-0.3-0.2-0.3-0.4V6.2c0-0.2,0.1-0.4,0.3-0.4h20.5
		c0.1,0,0.3,0.2,0.3,0.4V20.3z"/>
	<ellipse fill="#1D1D1B" cx="19.9" cy="13.2" rx="1" ry="1"/>
</g>
</svg>
