<?xml version="1.0" encoding="UTF-8"?><!DOCTYPE svg PUBLIC "-//W3C//DTD SVG 1.1//EN" "http://www.w3.org/Graphics/SVG/1.1/DTD/svg11.dtd"><svg xmlns="http://www.w3.org/2000/svg" xmlns:xlink="http://www.w3.org/1999/xlink"><defs>
        <path id="a" d="M4 3.5h239.76v194.88H4z"/>
    </defs><symbol id="icon-about-step2" viewBox="0 0 73.535 62.584">
    <path class="js-about-line2" d="M73.535 62.585h-1c0-19.595-6.302-34.888-18.73-45.455C32.583-.912.389 1.058.069 1.084L0 .086C.328.064 32.916-1.94 54.453 16.368c12.662 10.765 19.082 26.315 19.082 46.217z"/>
</symbol><symbol id="icon-about-step3" viewBox="0 0 73.534 62.572">
    <path class="js-about-line3" d="M3.162 62.572c-1.959 0-3.102-.07-3.162-.074l.068-.998c.321.02 32.515 1.994 53.735-16.047C66.232 34.887 72.534 19.595 72.534 0h1c0 19.901-6.42 35.45-19.082 46.215-17.59 14.954-42.555 16.357-51.29 16.357z"/>
</symbol><symbol id="icon-about-step5" viewBox="0 0 73.534 62.573">
    <path class="js-about-line5" d="M1 62.573H0c0-19.901 6.42-35.451 19.083-46.216C40.619-1.951 73.21.053 73.534.074l-.068.998c-.321-.026-32.513-1.996-53.736 16.046C7.302 27.685 1 42.978 1 62.573z"/>
</symbol><symbol id="icon-about-step6" viewBox="0 0 73.534 62.573">
    <path class="js-about-line6" d="M70.374 62.573c-8.731 0-33.699-1.402-51.292-16.357C6.42 35.45 0 19.901 0 0h1c0 19.594 6.302 34.887 18.73 45.454 21.231 18.049 53.413 16.069 53.736 16.047l.068.998c-.059.004-1.202.074-3.16.074z"/>
</symbol><symbol id="icon-arrow-l" viewBox="0 0 204 333">
    <path d="M46.5 166L197 306.7 176.3 326 5 166 176.3 6 197 25.4z"/>
</symbol><symbol id="icon-arrow-r" viewBox="0 0 204 333">
    <path d="M5 25.4L25.7 6 197 166 25.7 326 5 306.7 155.5 166z"/>
</symbol><symbol id="icon-btc" viewBox="0 0 170.5 226.8">
    <path d="M155 112.9c-7.3-5.5-17.7-7.7-17.7-7.7s8.8-5.1 12.4-10.2c3.6-5.1 5.4-13 5.7-17.1.3-4.1 1-21.3-12.4-31.2C132.6 39 120.7 36 104.8 35V.3H83.4v34.3H67.1V.3H45.7v34.3H3.6v22.2H16c3.4 0 9.4.4 11.9 3.2 2.5 2.8 3 4.3 3 9.9v88.5c0 2.1-.4 4.7-2.2 6.4-1.8 1.7-3.6 2.1-7.9 2.1H8l-4.4 25.7h42.1v34.2h21.4v-34.2h16.3v34.2h21.4V192c5.5-.3 10.7-.7 13.7-1.1 6.1-.8 19.9-2.4 32.8-11.4 12.9-9 15.8-23.1 16.1-37.3.3-14.1-5.1-23.8-12.4-29.3zM67.1 58.8s6.8-.6 13.5-.5c6.7.1 12.6.3 21.4 3 8.8 2.7 14 9.3 14.2 17.1.2 7.8-3.2 13-9.2 16.3-6 3.3-14.3 5.1-22.1 5.4-7.8.3-17.8 0-17.8 0V58.8zM115 161c-4.9 2.7-14.7 5.1-24.2 5.8-9.5.7-23.7.4-23.7.4v-45.9s13.6-.7 24.2 0 19.5 3.4 23.5 5.4c4 2 11 6.4 11 16.9 0 10.5-5.9 14.7-10.8 17.4z"/>
</symbol><symbol id="icon-coin" viewBox="-54 137 522 521">
    <circle cx="34.38" cy="545.39" r="10"/>
    <path d="M456.572 476.174c-8.646-19.579-31.61-28.476-51.189-19.832l-.149.067-64.508 29.749c-5.015 2.313-7.206 8.254-4.893 13.269 2.313 5.016 8.252 7.204 13.269 4.894l64.422-29.71c9.478-4.144 20.571.171 24.753 9.643 2.03 4.599 2.148 9.712.333 14.398s-5.348 8.386-9.947 10.416l-132.01 58.286c-20.884 9.222-44.587 8.686-65.033-1.473l-48.323-24.008c-25.781-12.809-55.674-13.485-82.009-1.858l-.834.369-36.012-81.563 50.022-22.086c23.855-10.535 50.476-11.385 74.953-2.395l97.174 35.686c8.801 3.232 13.492 13.079 10.457 21.95-3.093 9.039-12.973 13.902-22.021 10.842L199.881 477.4c-5.232-1.771-10.907 1.037-12.677 6.269s1.037 10.907 6.269 12.677l75.145 25.417a37.16 37.16 0 0 0 11.928 1.97c15.55 0 30.125-9.79 35.425-25.283 6.525-19.074-3.562-40.247-22.485-47.197l-97.174-35.686c-29.369-10.786-61.304-9.766-89.926 2.871l-50.362 22.236a24.936 24.936 0 0 0-11.888-9.611c-6.263-2.428-13.094-2.27-19.237.443l-64.329 28.402a10 10 0 0 0-5.961 9.12l-.488 173.944A9.998 9.998 0 0 0-35.878 653a9.996 9.996 0 0 0 4.509-1.074l125.841-63.571c6.013-2.736 10.63-7.626 13.021-13.797 1.979-5.105 2.239-10.59.797-15.771l1.076-.475c20.885-9.222 44.587-8.685 65.033 1.474l48.323 24.008c25.783 12.809 55.674 13.483 82.009 1.857l132.01-58.286c19.58-8.646 28.477-31.61 19.831-51.191zM88.843 567.333a5.108 5.108 0 0 1-2.717 2.845c-.159.07-111.959 56.544-111.959 56.544l.121-42.993 28.966-14.224c4.958-2.435 7.003-8.427 4.568-13.384-2.434-4.959-8.427-7.003-13.384-4.569l-20.088 9.864.241-85.835 58.386-25.779a5.113 5.113 0 0 1 3.933-.091 5.106 5.106 0 0 1 2.846 2.718L88.753 563.4a5.109 5.109 0 0 1 .09 3.933z"/>
    <path d="M326.707 322.104h-20.32c-5.778 0-10.478-4.7-10.478-10.478 0-5.522-4.477-10-10-10s-10 4.478-10 10c0 16.806 13.672 30.478 30.478 30.478h1.15v12.178c0 5.522 4.477 10 10 10s10-4.478 10-10v-12.199c17.514-.443 31.627-14.818 31.627-32.436v-10.668c0-17.896-14.561-32.457-32.458-32.457h-18.34c-6.869 0-12.458-5.589-12.458-12.458v-10.667c0-6.869 5.588-12.458 12.458-12.458h20.32c5.778 0 10.478 4.7 10.478 10.478 0 5.522 4.477 10 10 10s10-4.478 10-10c0-16.806-13.672-30.478-30.478-30.478h-1.149v-12.176c0-5.522-4.477-10-10-10s-10 4.478-10 10v12.197c-17.514.443-31.628 14.818-31.628 32.437v10.667c0 17.897 14.561 32.458 32.458 32.458h18.34c6.869 0 12.458 5.588 12.458 12.457v10.668c0 6.87-5.589 12.457-12.458 12.457z"/>
    <path d="M317.537 412.627c74.888 0 135.813-60.926 135.813-135.813S392.425 141 317.537 141s-135.813 60.926-135.813 135.813 60.926 135.814 135.813 135.814zm0-251.627c63.859 0 115.813 51.954 115.813 115.813s-51.954 115.813-115.813 115.813c-63.86 0-115.813-51.954-115.813-115.813S253.677 161 317.537 161z"/>
</symbol><symbol id="icon-facebook" viewBox="0 0 10 19">
    <title>
        facebook
    </title>
    <path d="M9.766.157v2.946H8.014c-.64 0-1.071.134-1.295.402-.223.268-.335.67-.335 1.205v2.11h3.27l-.435 3.303H6.384v8.471H2.97v-8.47H.123V6.82H2.97V4.387c0-1.384.387-2.457 1.161-3.22C4.904.404 5.934.023 7.222.023c1.093 0 1.941.045 2.544.134z" fill-rule="evenodd"/>
</symbol><symbol id="icon-graph" viewBox="-13 212 437 370">
    <path d="M347 335.4c32 0 58.4-26 58.4-58.4s-26-58-58.4-58-58 26-58 58.4 26 58 58 58zm0-103.6c25.2 0 45.6 20.4 45.6 45.6s-20.4 45.2-45.6 45.2-45.6-20.4-45.6-45.6 20.8-45.2 45.6-45.2z"/>
    <path d="M333 305c.8.4 2 .8 2.8.8.8.4 2 .4 3.2.8s2 .4 3.2.4h.8v8h9.6v-8.4h.4c1.2-.4 2.4-.8 3.6-1.6 1.2-.4 2-1.2 3.2-2 .8-.8 1.6-1.6 2.4-2.8.8-.8 1.2-2 2-3.2l1.2-3.6c.4-1.2.4-2.4.4-4 0-1.2 0-2-.4-3.2-.4-1.2-.4-2-1.2-3.2-.4-.8-.8-2-1.6-2.8-.8-.8-1.2-1.6-2-2.4s-1.6-1.6-2.8-2c-.8-.8-2-1.2-2.8-1.6-1.2-.4-2-1.2-3.2-1.6-1.2-.4-2.4-.8-3.2-1.2-.4 0-1.2-.4-1.6-.8-.4-.4-1.2-.4-1.6-.8-.4-.4-1.2-.4-1.6-.8l-1.2-1.2c-.4-.4-.8-.8-.8-1.6-.4-.4-.4-1.2-.4-1.6v-2c0-.4.4-1.2.4-1.6.4-.4.4-1.2.8-1.6l1.2-1.2c.4-.4 1.2-.8 2-.8.8-.4 1.2-.4 2-.4h2.4c.8 0 1.2 0 2 .4.8 0 1.6.4 2 .4.4 0 1.2.4 1.6.4.8 0 1.2.4 1.6.4l2 .8.4-2.4.8-6.4V249l-1.6-.4c-.4 0-1.2-.4-1.6-.4-.4 0-.8-.4-1.6-.4-.4 0-1.2-.4-2-.4s-1.2-.4-2-.4h-.4v-7.6h-9.6v8h-.4c-1.2.4-2.4.8-3.6 1.6-1.2.4-2 1.2-2.8 2-.8.8-1.6 1.6-2.4 2.8-.8.8-1.2 2-1.6 3.2l-1.2 3.6c-.4 1.2-.4 2.8-.4 4 0 1.2 0 2 .4 3.2s.4 2 1.2 3.2c.4.8 1.2 2 1.6 2.8.8.8 1.2 1.6 2 2.4.8.8 1.6 1.6 2.8 2 .8.8 2 1.2 2.8 1.6 1.2.4 2.4 1.2 3.2 1.6 1.2.4 2.4.8 3.2 1.2.4 0 1.2.4 1.6.8s1.2.4 1.6.8c.4.4.8.8 1.2.8l1.2 1.2c.4.4.4.8.8 1.6 0 .4.4 1.2.4 2v2c0 .4-.4 1.2-.8 1.6l-1.2 1.2c-.4.4-.8.8-1.6 1.2-.4.4-1.2.4-1.6.8-.4 0-1.2.4-2 .4H341c-.8 0-1.6-.4-2-.4-.8 0-1.6-.4-2.4-.8-.8-.4-1.6-.4-2.4-.8-.4 0-.8-.4-1.2-.4-.4 0-.8-.4-1.2-.4l-2.4-1.2-.4 2.8-.8 7.2v1.2l1.2.4c1.6-.4 2.4 0 3.6.4z"/>
    <path d="M69.4 435c1.2 0 2.4-.4 3.6-1.2l86.8-62 84 34.8c2 .8 4.8.4 6.4-.8l67.6-53.6c2.8-2 3.2-6.4 1.2-9.2-2-2.8-6.4-3.2-9.2-1.2L245 393.4l-83.6-34.8c-2-.8-4.4-.4-6 .8l-89.6 64c-2.8 2-3.6 6-1.6 8.8 1.2 2 3.2 2.8 5.2 2.8z"/>
    <path d="M412.6 562.2H383V377c0-3.6-2.8-6.4-6.4-6.4h-58.8c-3.6 0-6.4 2.8-6.4 6.4v185.2h-21.6V441c0-3.6-2.8-6.4-6.4-6.4h-59.2c-3.6 0-6.4 2.8-6.4 6.4v121.2h-21.6V431.4c0-3.6-2.8-6.4-6.4-6.4H131c-3.6 0-6.4 2.8-6.4 6.4v130.8H103V469c0-3.6-2.8-6.4-6.4-6.4H37.4c-3.6 0-6.4 2.8-6.4 6.4v93.2H1c-3.6 0-6.4 2.8-6.4 6.4 0 3.6 2.8 6.4 6.4 6.4h411.2c3.6 0 6.4-2.8 6.4-6.4.4-3.6-2.4-6.4-6-6.4zm-88.4-178.8h46v178.8h-46V383.4zm-93.6 64h46v114.8h-46V447.4zm-93.2-9.6h46v124.4h-46V437.8zm-93.6 37.6h46v86.8h-46v-86.8z"/>
</symbol><symbol id="icon-money" viewBox="-58 134 527 524">
    <path d="M29.004 593.002c-2.63 0-5.21 1.069-7.07 2.93-1.86 1.861-2.93 4.44-2.93 7.07s1.069 5.21 2.93 7.069c1.86 1.86 4.44 2.931 7.07 2.931s5.21-1.07 7.069-2.931c1.86-1.859 2.931-4.439 2.931-7.069s-1.07-5.21-2.931-7.07a10.063 10.063 0 0 0-7.069-2.93z"/>
    <path d="M413.454 321.008c-2.63 0-5.21 1.069-7.07 2.93-1.859 1.86-2.93 4.44-2.93 7.07s1.07 5.21 2.93 7.069a10.077 10.077 0 0 0 7.07 2.931c2.64 0 5.21-1.07 7.07-2.931 1.869-1.859 2.939-4.439 2.939-7.069s-1.07-5.21-2.939-7.07a10.054 10.054 0 0 0-7.07-2.93z"/>
    <path d="M460.065 143.929a10.006 10.006 0 0 0-7.073-2.929l-245.994.013c-5.522 0-9.999 4.478-9.999 10v28.597l-94.789 25.399c-5.335 1.43-8.501 6.913-7.071 12.247l49.127 183.342-42.499 42.499c-5.409-7.898-14.491-13.092-24.764-13.092h-95.998c-16.542 0-29.999 13.458-29.999 29.999V623c0 16.542 13.458 29.999 29.999 29.999h95.998c14.053 0 25.875-9.716 29.115-22.78l11.89 10.369A50.382 50.382 0 0 0 151.126 653h301.867c5.522 0 10-4.478 10-10V151a10 10 0 0 0-2.928-7.071zM197 367.61l-18.239-67.535c7.618-3.934 13.854-9.82 18.239-16.846v84.381zm0-167.296v37.055l-6.702 1.796a9.997 9.997 0 0 0-7.071 12.247c3.843 14.341-4.698 29.134-19.039 32.977a9.998 9.998 0 0 0-7.066 12.267l38.979 144.338h-20.069L165.69 400.53a9.985 9.985 0 0 0-1.676-3.507l-46.968-175.285L197 200.314zM77.003 633h-95.998c-5.514 0-10-4.486-10-10V460.005c0-5.514 4.486-10 10-10h37.999V565.2c0 5.522 4.478 10 10 10s10-4.478 10-10V450.005h37.999c5.514 0 10 4.486 10 10v162.996c0 5.513-4.486 9.999-10 9.999zm74.123 0a30.392 30.392 0 0 1-19.975-7.485l-24.149-21.061V466.147l43.658-43.658 7.918 30.98a10 10 0 0 0 9.688 7.523l196.604.012c7.72 0 14 6.28 14 14s-6.28 14-14 14H264.13c-5.522 0-10 4.478-10 10s4.478 10 10 10h132.04c7.72 0 14 6.28 14 14s-6.28 14-14 14H264.13c-5.522 0-10 4.478-10 10s4.478 10 10 10h110.643c7.72 0 14 6.28 14 14s-6.28 14-14 14H264.13c-5.522 0-10 4.478-10 10s4.478 10 10 10h76.533c7.72 0 14 6.28 14 14s-6.28 14-14 14L151.126 633zm291.868 0h-71.359c1.939-4.273 3.028-9.01 3.028-14s-1.089-9.727-3.028-14h3.139c18.748 0 33.999-15.252 33.999-33.999a33.778 33.778 0 0 0-3.609-15.217c14.396-3.954 25.005-17.149 25.005-32.782a33.816 33.816 0 0 0-6.711-20.255v-126.74c0-5.522-4.478-10-10-10s-10 4.478-10 10v113.792a34.008 34.008 0 0 0-7.289-.795h-.328a33.79 33.79 0 0 0 3.028-14c0-18.747-15.252-33.999-33.999-33.999h-16.075c17.069-7.32 29.057-24.286 29.057-44.005 0-26.389-21.468-47.858-47.857-47.858S282.14 370.612 282.14 397c0 19.719 11.989 36.685 29.057 44.005h-54.663V250.863c17.864-3.893 31.96-17.988 35.852-35.853h75.221c3.892 17.865 17.988 31.96 35.852 35.853v31.09c0 5.522 4.478 10 10 10s10-4.478 10-10v-40.018c0-5.522-4.478-10-10-10-14.847 0-26.924-12.079-26.924-26.925 0-5.522-4.478-10-10-10H283.46c-5.522 0-10 4.478-10 10 0 14.847-12.078 26.925-26.924 26.925-5.522 0-10 4.478-10 10v199.069H217V161.011L442.995 161v472h-.001zM329.996 424.858c-15.361 0-27.857-12.497-27.857-27.857s12.497-27.858 27.857-27.858c15.361 0 27.857 12.498 27.857 27.858s-12.495 27.857-27.857 27.857z"/>
</symbol><symbol id="icon-travel" viewBox="0 0 247.5 202.5">
    <path d="M83.527 57.389l-2.73-10.227a153.215 153.215 0 0 0-17.473 5.825l3.942 9.816a142.482 142.482 0 0 1 16.261-5.414zm0 0"/>
    <path d="M51.77 70.139l-5.09-9.277a154.356 154.356 0 0 0-15.586 9.82l6.168 8.598a144.413 144.413 0 0 1 14.508-9.141zm0 0"/>
    
    <clipPath id="b">
        <use xlink:href="#a" overflow="visible"/>
    </clipPath>
    <path clip-path="url(#b)" d="M4 95.565l8.043 6.871A142.553 142.553 0 0 1 23.953 90.1l-7.152-7.793A151.881 151.881 0 0 0 4 95.565zm0 0"/>
    <path clip-path="url(#b)" d="M232.371 91.303l-7.793 7.16c3.86 4.199 7.5 8.676 10.824 13.305L244 105.6a153.234 153.234 0 0 0-11.629-14.297zm0 0"/>
    <path d="M198.543 76.229a142.215 142.215 0 0 1 13.691 10.328l6.871-8.047a152.12 152.12 0 0 0-14.718-11.101l-5.844 8.82zm0 0"/>
    <path d="M188.43 58.174a153.622 153.622 0 0 0-16.95-7.222l-3.55 9.968a142.099 142.099 0 0 1 15.769 6.719l4.731-9.465zm0 0"/>
    <path d="M92.73 65.307l7.192.004 5.996-9.09 11.543.078-7.27 25.059v.594a5.748 5.748 0 0 0 5.739 5.738h10.425l16.547-30.684 12.786.422c6.621 0 12.003-5.191 12.003-11.57.004-3.137-1.273-6.074-3.597-8.27-2.254-2.129-5.235-3.304-8.532-3.304h-.007l-12.762.425-16.434-30.472-10.441-.004a5.754 5.754 0 0 0-5.727 5.742v.59l7.211 24.855-11.593.102-5.887-8.91h-7.188a5.354 5.354 0 0 0-5.351 5.351v27.996a5.35 5.35 0 0 0 5.347 5.348zm2.973-29.973h.004l5.652 8.555 27.102-.234-9.02-31.094h1.95l16.523 30.644 17.781-.597c1.024 0 1.977.367 2.68 1.035.641.602.992 1.387.992 2.211 0 1.793-1.648 3.25-3.539 3.254l-17.805-.59-16.636 30.848h-1.946l9.079-31.313-27.063-.187-5.754 8.714V35.334zm0 0"/>
    <path d="M141.043 106.123a94.643 94.643 0 0 0-21.047-2.382c-44.289 0-82.105 30.207-91.957 73.453a94.646 94.646 0 0 0-2.355 20.226h10.582a83.907 83.907 0 0 1 1.089-12.656c5.95 1.527 12.079 3.973 14.047 5.582-.09.68-.195 1.371-.304 2.07-.239 1.543-.496 3.25-.602 5.004h10.617c.11-1.199.301-2.465.442-3.394.195-1.274.39-2.543.511-3.77.657-6.644-6.878-11.961-22.367-15.808 8.52-29.063 31.559-50.684 60.129-57.688-1.574 3.047-2.844 6.813-3.375 11.578-.258 2.332-.59 4.442-.887 6.301-1.183 7.488-2.41 15.231 7.715 19.738 5.68 2.535 9.653 2.953 12.844 3.289 1.551.161 2.918.305 4.371.676.516 1.723.254 5.922.152 7.602-.132 2.133-.269 4.308.383 6.086.649 3.632 3.332 15.136 12.246 25.386h15.922c-15.304-9.992-17.746-27.078-17.844-27.828l-.218-1.746c.019-.41.047-.863.07-1.25.34-5.504.977-15.762-6.875-18.16-2.711-.828-5.043-1.07-7.098-1.289-2.949-.309-5.496-.578-9.64-2.426-2.715-1.211-2.715-1.211-1.574-8.422.312-1.976.668-4.215.949-6.797.808-7.285 3.879-11.902 6.652-14.925a85.7 85.7 0 0 1 6.375-.25c6.25 0 12.543.707 18.699 2.109 21.832 4.977 40.426 18.152 52.344 37.105 8.078 12.844 12.426 27.301 12.848 42.083-.879.578-1.977 1.183-3.153 1.796h13.739c-.098-17.379-4.993-34.429-14.477-49.511-13.426-21.34-34.363-36.18-58.953-41.782zm0 0"/>
</symbol><symbol id="icon-wallet" viewBox="0 0 26 22.9">
    <g>
        <path d="M23.2 4.3h-2.4l-.3-1.8c0-.2-.2-.3-.4-.4h-.2l-1.4.2-.4-1.2s0-.1-.1-.1V.9l-.1-.1h-.1-.1-.1-.1l-10 3.1-3 .4H2.8c-1 0-1.8.8-1.8 1.9v14.1c0 1 .8 1.9 1.8 1.9h20.5c1 0 1.8-.8 1.8-1.9V6.2c-.1-1.1-.9-1.9-1.9-1.9zm-3.6-1.2l.2 1.2h-8.3l8.1-1.2zm-2.2-1.3l.2.6-3.8.5 3.6-1.1zm6.1 18.5c0 .2-.1.4-.3.4H2.8c-.1 0-.3-.2-.3-.4V6.2c0-.2.1-.4.3-.4h20.5c.1 0 .3.2.3.4v14.1z"/>
        <ellipse cx="19.9" cy="13.2" rx="1" ry="1"/>
    </g>
</symbol></svg>