<?xml version="1.0" encoding="UTF-8"?><!DOCTYPE svg PUBLIC "-//W3C//DTD SVG 1.1//EN" "http://www.w3.org/Graphics/SVG/1.1/DTD/svg11.dtd"><svg xmlns="http://www.w3.org/2000/svg"><symbol id="icon-btc" viewBox="0 0 170.5 226.8">
    <path d="M155 112.9c-7.3-5.5-17.7-7.7-17.7-7.7s8.8-5.1 12.4-10.2c3.6-5.1 5.4-13 5.7-17.1.3-4.1 1-21.3-12.4-31.2C132.6 39 120.7 36 104.8 35V.3H83.4v34.3H67.1V.3H45.7v34.3H3.6v22.2H16c3.4 0 9.4.4 11.9 3.2 2.5 2.8 3 4.3 3 9.9v88.5c0 2.1-.4 4.7-2.2 6.4-1.8 1.7-3.6 2.1-7.9 2.1H8l-4.4 25.7h42.1v34.2h21.4v-34.2h16.3v34.2h21.4V192c5.5-.3 10.7-.7 13.7-1.1 6.1-.8 19.9-2.4 32.8-11.4 12.9-9 15.8-23.1 16.1-37.3.3-14.1-5.1-23.8-12.4-29.3zM67.1 58.8s6.8-.6 13.5-.5c6.7.1 12.6.3 21.4 3 8.8 2.7 14 9.3 14.2 17.1.2 7.8-3.2 13-9.2 16.3-6 3.3-14.3 5.1-22.1 5.4-7.8.3-17.8 0-17.8 0V58.8zM115 161c-4.9 2.7-14.7 5.1-24.2 5.8-9.5.7-23.7.4-23.7.4v-45.9s13.6-.7 24.2 0 19.5 3.4 23.5 5.4c4 2 11 6.4 11 16.9 0 10.5-5.9 14.7-10.8 17.4z"/>
</symbol><symbol id="icon-facebook" viewBox="0 0 10 19">
    <title>
        facebook
    </title>
    <path d="M9.766.157v2.946H8.014c-.64 0-1.071.134-1.295.402-.223.268-.335.67-.335 1.205v2.11h3.27l-.435 3.303H6.384v8.471H2.97v-8.47H.123V6.82H2.97V4.387c0-1.384.387-2.457 1.161-3.22C4.904.404 5.934.023 7.222.023c1.093 0 1.941.045 2.544.134z" fill-rule="evenodd"/>
</symbol><symbol id="icon-wallet" viewBox="0 0 26 22.9">
    <g>
        <path d="M23.2 4.3h-2.4l-.3-1.8c0-.2-.2-.3-.4-.4h-.2l-1.4.2-.4-1.2s0-.1-.1-.1V.9l-.1-.1h-.1-.1-.1-.1l-10 3.1-3 .4H2.8c-1 0-1.8.8-1.8 1.9v14.1c0 1 .8 1.9 1.8 1.9h20.5c1 0 1.8-.8 1.8-1.9V6.2c-.1-1.1-.9-1.9-1.9-1.9zm-3.6-1.2l.2 1.2h-8.3l8.1-1.2zm-2.2-1.3l.2.6-3.8.5 3.6-1.1zm6.1 18.5c0 .2-.1.4-.3.4H2.8c-.1 0-.3-.2-.3-.4V6.2c0-.2.1-.4.3-.4h20.5c.1 0 .3.2.3.4v14.1z"/>
        <ellipse cx="19.9" cy="13.2" rx="1" ry="1"/>
    </g>
</symbol></svg>